<mxfile host="app.diagrams.net" modified="2023-11-30T14:48:11.490Z" agent="Mozilla/5.0 (Windows NT 10.0; Win64; x64) AppleWebKit/537.36 (KHTML, like Gecko) Chrome/119.0.0.0 Safari/537.36" etag="_ra5pa4updOqjGyNxQf6" version="22.1.5" type="github">
  <diagram name="Page-1" id="nUPiuCRVbXKer7cdgbRS">
    <mxGraphModel dx="2074" dy="1120" grid="1" gridSize="10" guides="1" tooltips="1" connect="1" arrows="1" fold="1" page="1" pageScale="1" pageWidth="827" pageHeight="1169" math="0" shadow="0">
      <root>
        <mxCell id="0" />
        <mxCell id="1" parent="0" />
        <mxCell id="meWhoNTzZQdbwV-DVgsE-1" value="" style="edgeStyle=orthogonalEdgeStyle;rounded=0;orthogonalLoop=1;jettySize=auto;html=1;" parent="1" source="meWhoNTzZQdbwV-DVgsE-2" target="meWhoNTzZQdbwV-DVgsE-5" edge="1">
          <mxGeometry relative="1" as="geometry" />
        </mxCell>
        <mxCell id="meWhoNTzZQdbwV-DVgsE-2" value="start" style="rounded=1;whiteSpace=wrap;html=1;" parent="1" vertex="1">
          <mxGeometry x="480" width="160" height="40" as="geometry" />
        </mxCell>
        <mxCell id="meWhoNTzZQdbwV-DVgsE-11" value="" style="edgeStyle=orthogonalEdgeStyle;rounded=0;orthogonalLoop=1;jettySize=auto;html=1;" parent="1" edge="1">
          <mxGeometry relative="1" as="geometry">
            <mxPoint x="560" y="160" as="targetPoint" />
            <mxPoint x="560" y="120" as="sourcePoint" />
          </mxGeometry>
        </mxCell>
        <mxCell id="meWhoNTzZQdbwV-DVgsE-5" value="preparing and tracking&amp;nbsp;" style="rounded=0;whiteSpace=wrap;html=1;" parent="1" vertex="1">
          <mxGeometry x="480" y="80" width="160" height="40" as="geometry" />
        </mxCell>
        <mxCell id="meWhoNTzZQdbwV-DVgsE-6" value="init" style="text;html=1;strokeColor=none;fillColor=none;align=center;verticalAlign=middle;whiteSpace=wrap;rounded=0;" parent="1" vertex="1">
          <mxGeometry x="640" y="80" width="120" height="40" as="geometry" />
        </mxCell>
        <mxCell id="meWhoNTzZQdbwV-DVgsE-8" value="!fech pseudopotentials" style="text;html=1;strokeColor=none;fillColor=none;align=center;verticalAlign=middle;whiteSpace=wrap;rounded=0;" parent="1" vertex="1">
          <mxGeometry x="640" y="240" width="160" height="40" as="geometry" />
        </mxCell>
        <mxCell id="meWhoNTzZQdbwV-DVgsE-13" value="" style="edgeStyle=orthogonalEdgeStyle;rounded=0;orthogonalLoop=1;jettySize=auto;html=1;" parent="1" target="meWhoNTzZQdbwV-DVgsE-12" edge="1">
          <mxGeometry relative="1" as="geometry">
            <mxPoint x="560" y="200" as="sourcePoint" />
          </mxGeometry>
        </mxCell>
        <mxCell id="meWhoNTzZQdbwV-DVgsE-20" value="" style="edgeStyle=orthogonalEdgeStyle;rounded=0;orthogonalLoop=1;jettySize=auto;html=1;" parent="1" source="meWhoNTzZQdbwV-DVgsE-12" target="meWhoNTzZQdbwV-DVgsE-19" edge="1">
          <mxGeometry relative="1" as="geometry" />
        </mxCell>
        <mxCell id="meWhoNTzZQdbwV-DVgsE-12" value="get pseudopotentials" style="whiteSpace=wrap;html=1;" parent="1" vertex="1">
          <mxGeometry x="480" y="240" width="160" height="40" as="geometry" />
        </mxCell>
        <mxCell id="meWhoNTzZQdbwV-DVgsE-16" value="read parsec.in" style="rounded=0;whiteSpace=wrap;html=1;" parent="1" vertex="1">
          <mxGeometry x="480" y="160" width="160" height="40" as="geometry" />
        </mxCell>
        <mxCell id="meWhoNTzZQdbwV-DVgsE-23" value="" style="edgeStyle=orthogonalEdgeStyle;rounded=0;orthogonalLoop=1;jettySize=auto;html=1;" parent="1" source="meWhoNTzZQdbwV-DVgsE-19" target="meWhoNTzZQdbwV-DVgsE-22" edge="1">
          <mxGeometry relative="1" as="geometry" />
        </mxCell>
        <mxCell id="meWhoNTzZQdbwV-DVgsE-19" value="make grid" style="whiteSpace=wrap;html=1;" parent="1" vertex="1">
          <mxGeometry x="480" y="320" width="160" height="40" as="geometry" />
        </mxCell>
        <mxCell id="meWhoNTzZQdbwV-DVgsE-21" value="!Generat kpoint mesh+generate the actual grid" style="text;html=1;strokeColor=none;fillColor=none;align=center;verticalAlign=middle;whiteSpace=wrap;rounded=0;" parent="1" vertex="1">
          <mxGeometry x="640" y="320" width="160" height="40" as="geometry" />
        </mxCell>
        <mxCell id="meWhoNTzZQdbwV-DVgsE-25" value="" style="edgeStyle=orthogonalEdgeStyle;rounded=0;orthogonalLoop=1;jettySize=auto;html=1;" parent="1" source="meWhoNTzZQdbwV-DVgsE-22" edge="1">
          <mxGeometry relative="1" as="geometry">
            <mxPoint x="560" y="480" as="targetPoint" />
          </mxGeometry>
        </mxCell>
        <mxCell id="meWhoNTzZQdbwV-DVgsE-22" value="halo" style="whiteSpace=wrap;html=1;" parent="1" vertex="1">
          <mxGeometry x="480" y="400" width="160" height="40" as="geometry" />
        </mxCell>
        <mxCell id="meWhoNTzZQdbwV-DVgsE-29" value="Sanity check" style="whiteSpace=wrap;html=1;" parent="1" vertex="1">
          <mxGeometry x="480" y="480" width="160" height="40" as="geometry" />
        </mxCell>
        <mxCell id="meWhoNTzZQdbwV-DVgsE-31" value="" style="endArrow=classic;html=1;rounded=0;exitX=0.5;exitY=1;exitDx=0;exitDy=0;entryX=0.5;entryY=0;entryDx=0;entryDy=0;" parent="1" source="meWhoNTzZQdbwV-DVgsE-29" target="fpvFAcqy5JWS7vJNMOJu-1" edge="1">
          <mxGeometry width="50" height="50" relative="1" as="geometry">
            <mxPoint x="560" y="760" as="sourcePoint" />
            <mxPoint x="240" y="80" as="targetPoint" />
            <Array as="points">
              <mxPoint x="560" y="560" />
              <mxPoint x="520" y="560" />
              <mxPoint x="440" y="560" />
              <mxPoint x="440" y="40" />
              <mxPoint x="200" y="40" />
            </Array>
          </mxGeometry>
        </mxCell>
        <mxCell id="meWhoNTzZQdbwV-DVgsE-37" value="" style="edgeStyle=orthogonalEdgeStyle;rounded=0;orthogonalLoop=1;jettySize=auto;html=1;" parent="1" target="meWhoNTzZQdbwV-DVgsE-36" edge="1">
          <mxGeometry relative="1" as="geometry">
            <mxPoint x="200" y="120" as="sourcePoint" />
          </mxGeometry>
        </mxCell>
        <mxCell id="meWhoNTzZQdbwV-DVgsE-34" value="run_md" style="text;html=1;strokeColor=none;fillColor=none;align=center;verticalAlign=middle;whiteSpace=wrap;rounded=0;" parent="1" vertex="1">
          <mxGeometry x="320" y="80" width="120" height="40" as="geometry" />
        </mxCell>
        <mxCell id="fpvFAcqy5JWS7vJNMOJu-3" value="" style="edgeStyle=orthogonalEdgeStyle;rounded=0;orthogonalLoop=1;jettySize=auto;html=1;" parent="1" source="meWhoNTzZQdbwV-DVgsE-36" target="fpvFAcqy5JWS7vJNMOJu-2" edge="1">
          <mxGeometry relative="1" as="geometry" />
        </mxCell>
        <mxCell id="meWhoNTzZQdbwV-DVgsE-36" value="move one time step" style="whiteSpace=wrap;html=1;" parent="1" vertex="1">
          <mxGeometry x="120" y="160" width="160" height="40" as="geometry" />
        </mxCell>
        <mxCell id="fpvFAcqy5JWS7vJNMOJu-1" value="set initial conditions (like velocities)" style="rounded=0;whiteSpace=wrap;html=1;" parent="1" vertex="1">
          <mxGeometry x="120" y="80" width="160" height="40" as="geometry" />
        </mxCell>
        <mxCell id="l-8PTlar3XJyIrFrQa9x-2" value="" style="edgeStyle=orthogonalEdgeStyle;rounded=0;orthogonalLoop=1;jettySize=auto;html=1;" edge="1" parent="1" source="fpvFAcqy5JWS7vJNMOJu-2" target="l-8PTlar3XJyIrFrQa9x-1">
          <mxGeometry relative="1" as="geometry" />
        </mxCell>
        <mxCell id="fpvFAcqy5JWS7vJNMOJu-2" value="&amp;nbsp;KS iteration" style="whiteSpace=wrap;html=1;fillColor=#dae8fc;strokeColor=#6c8ebf;" parent="1" vertex="1">
          <mxGeometry x="120" y="240" width="160" height="40" as="geometry" />
        </mxCell>
        <mxCell id="fpvFAcqy5JWS7vJNMOJu-4" value="" style="endArrow=classic;html=1;rounded=0;exitX=0.5;exitY=1;exitDx=0;exitDy=0;entryX=0.5;entryY=0;entryDx=0;entryDy=0;" parent="1" target="fpvFAcqy5JWS7vJNMOJu-5" edge="1">
          <mxGeometry width="50" height="50" relative="1" as="geometry">
            <mxPoint x="200" y="480" as="sourcePoint" />
            <mxPoint x="280" y="560" as="targetPoint" />
            <Array as="points">
              <mxPoint x="200" y="520" />
              <mxPoint x="320" y="520" />
            </Array>
          </mxGeometry>
        </mxCell>
        <mxCell id="fpvFAcqy5JWS7vJNMOJu-8" value="" style="edgeStyle=orthogonalEdgeStyle;rounded=0;orthogonalLoop=1;jettySize=auto;html=1;" parent="1" source="fpvFAcqy5JWS7vJNMOJu-5" target="fpvFAcqy5JWS7vJNMOJu-7" edge="1">
          <mxGeometry relative="1" as="geometry" />
        </mxCell>
        <mxCell id="fpvFAcqy5JWS7vJNMOJu-5" value="position(t+1),V(t+0.5),update" style="whiteSpace=wrap;html=1;fillColor=#d5e8d4;strokeColor=#82b366;" parent="1" vertex="1">
          <mxGeometry x="240" y="560" width="160" height="40" as="geometry" />
        </mxCell>
        <mxCell id="fpvFAcqy5JWS7vJNMOJu-12" value="" style="edgeStyle=orthogonalEdgeStyle;rounded=0;orthogonalLoop=1;jettySize=auto;html=1;" parent="1" source="fpvFAcqy5JWS7vJNMOJu-6" target="fpvFAcqy5JWS7vJNMOJu-11" edge="1">
          <mxGeometry relative="1" as="geometry" />
        </mxCell>
        <mxCell id="fpvFAcqy5JWS7vJNMOJu-6" value="KS" style="whiteSpace=wrap;html=1;fillColor=#dae8fc;strokeColor=#6c8ebf;" parent="1" vertex="1">
          <mxGeometry x="240" y="720" width="160" height="40" as="geometry" />
        </mxCell>
        <mxCell id="fpvFAcqy5JWS7vJNMOJu-9" value="" style="edgeStyle=orthogonalEdgeStyle;rounded=0;orthogonalLoop=1;jettySize=auto;html=1;" parent="1" source="fpvFAcqy5JWS7vJNMOJu-7" target="fpvFAcqy5JWS7vJNMOJu-6" edge="1">
          <mxGeometry relative="1" as="geometry" />
        </mxCell>
        <mxCell id="fpvFAcqy5JWS7vJNMOJu-7" value="predict_wavefunction" style="whiteSpace=wrap;html=1;fillColor=#d5e8d4;strokeColor=#82b366;" parent="1" vertex="1">
          <mxGeometry x="240" y="640" width="160" height="40" as="geometry" />
        </mxCell>
        <mxCell id="fpvFAcqy5JWS7vJNMOJu-10" value="for verlet integration" style="shape=callout;whiteSpace=wrap;html=1;perimeter=calloutPerimeter;fillColor=#fff2cc;strokeColor=#d6b656;" parent="1" vertex="1">
          <mxGeometry x="335" y="470" width="75" height="90" as="geometry" />
        </mxCell>
        <mxCell id="fpvFAcqy5JWS7vJNMOJu-14" value="" style="edgeStyle=orthogonalEdgeStyle;rounded=0;orthogonalLoop=1;jettySize=auto;html=1;" parent="1" source="fpvFAcqy5JWS7vJNMOJu-11" target="fpvFAcqy5JWS7vJNMOJu-13" edge="1">
          <mxGeometry relative="1" as="geometry" />
        </mxCell>
        <mxCell id="fpvFAcqy5JWS7vJNMOJu-11" value="V(t+1)" style="whiteSpace=wrap;html=1;fillColor=#d5e8d4;strokeColor=#82b366;" parent="1" vertex="1">
          <mxGeometry x="240" y="800" width="160" height="40" as="geometry" />
        </mxCell>
        <mxCell id="fpvFAcqy5JWS7vJNMOJu-13" value="write to log" style="whiteSpace=wrap;html=1;fillColor=#d5e8d4;strokeColor=#82b366;" parent="1" vertex="1">
          <mxGeometry x="240" y="880" width="160" height="40" as="geometry" />
        </mxCell>
        <mxCell id="fpvFAcqy5JWS7vJNMOJu-15" value="" style="endArrow=classic;html=1;rounded=0;exitX=0.5;exitY=1;exitDx=0;exitDy=0;entryX=0.5;entryY=0;entryDx=0;entryDy=0;entryPerimeter=0;" parent="1" source="fpvFAcqy5JWS7vJNMOJu-13" target="fpvFAcqy5JWS7vJNMOJu-16" edge="1">
          <mxGeometry width="50" height="50" relative="1" as="geometry">
            <mxPoint x="390" y="700" as="sourcePoint" />
            <mxPoint x="200" y="1000" as="targetPoint" />
            <Array as="points">
              <mxPoint x="320" y="960" />
              <mxPoint x="200" y="960" />
            </Array>
          </mxGeometry>
        </mxCell>
        <mxCell id="fpvFAcqy5JWS7vJNMOJu-19" value="" style="edgeStyle=orthogonalEdgeStyle;rounded=0;orthogonalLoop=1;jettySize=auto;html=1;" parent="1" source="fpvFAcqy5JWS7vJNMOJu-16" target="fpvFAcqy5JWS7vJNMOJu-18" edge="1">
          <mxGeometry relative="1" as="geometry" />
        </mxCell>
        <mxCell id="fpvFAcqy5JWS7vJNMOJu-16" value="time&amp;gt;endtime" style="rhombus;whiteSpace=wrap;html=1;fillColor=#d5e8d4;strokeColor=#82b366;" parent="1" vertex="1">
          <mxGeometry x="120" y="1000" width="160" height="80" as="geometry" />
        </mxCell>
        <mxCell id="fpvFAcqy5JWS7vJNMOJu-17" value="" style="endArrow=classic;html=1;rounded=0;exitX=0;exitY=0.5;exitDx=0;exitDy=0;" parent="1" source="fpvFAcqy5JWS7vJNMOJu-16" edge="1">
          <mxGeometry width="50" height="50" relative="1" as="geometry">
            <mxPoint x="390" y="700" as="sourcePoint" />
            <mxPoint x="200" y="520" as="targetPoint" />
            <Array as="points">
              <mxPoint x="120" y="520" />
            </Array>
          </mxGeometry>
        </mxCell>
        <mxCell id="fpvFAcqy5JWS7vJNMOJu-18" value="end" style="rounded=1;whiteSpace=wrap;html=1;" parent="1" vertex="1">
          <mxGeometry x="120" y="1120" width="160" height="40" as="geometry" />
        </mxCell>
        <mxCell id="fpvFAcqy5JWS7vJNMOJu-20" value="No" style="text;html=1;strokeColor=none;fillColor=none;align=center;verticalAlign=middle;whiteSpace=wrap;rounded=0;" parent="1" vertex="1">
          <mxGeometry x="60" y="1010" width="60" height="40" as="geometry" />
        </mxCell>
        <mxCell id="fpvFAcqy5JWS7vJNMOJu-21" value="yes" style="text;html=1;strokeColor=none;fillColor=none;align=center;verticalAlign=middle;whiteSpace=wrap;rounded=0;" parent="1" vertex="1">
          <mxGeometry x="200" y="1080" width="60" height="40" as="geometry" />
        </mxCell>
        <mxCell id="l-8PTlar3XJyIrFrQa9x-1" value="P=KS" style="whiteSpace=wrap;html=1;fillColor=#e1d5e7;strokeColor=#9673a6;" vertex="1" parent="1">
          <mxGeometry x="120" y="320" width="160" height="40" as="geometry" />
        </mxCell>
        <mxCell id="l-8PTlar3XJyIrFrQa9x-3" value="mu, omega (meybe inside)" style="whiteSpace=wrap;html=1;fillColor=#e1d5e7;strokeColor=#9673a6;" vertex="1" parent="1">
          <mxGeometry x="120" y="400" width="160" height="40" as="geometry" />
        </mxCell>
      </root>
    </mxGraphModel>
  </diagram>
</mxfile>
